<?xml version="1.0" standalone="no"?>
<!DOCTYPE svg PUBLIC "-//W3C//DTD SVG 20010904//EN"
 "http://www.w3.org/TR/2001/REC-SVG-20010904/DTD/svg10.dtd">
<svg version="1.0" xmlns="http://www.w3.org/2000/svg"
 width="1000.000000pt" height="1000.000000pt" viewBox="0 0 1000.000000 1000.000000"
 preserveAspectRatio="xMidYMid meet">
<metadata>
Created by potrace 1.14, written by Peter Selinger 2001-2017
</metadata>
<g transform="translate(0.000000,1000.000000) scale(0.100000,-0.100000)"
fill="#000000" stroke="none">
<path d="M4844 9811 c-2 -2 -16 -5 -31 -7 -56 -5 -149 -26 -181 -40 -18 -9
-42 -16 -52 -17 -11 -1 -20 -4 -20 -8 0 -4 -15 -11 -32 -14 -18 -4 -38 -11
-44 -17 -7 -5 -16 -8 -20 -7 -5 1 -11 0 -14 -1 -3 -1 -32 -4 -65 -6 -76 -5
-98 -9 -110 -16 -6 -3 -26 -8 -45 -12 -19 -3 -46 -9 -60 -12 -14 -3 -38 -8
-55 -11 -16 -2 -37 -7 -45 -10 -8 -3 -29 -7 -46 -9 -18 -1 -49 -12 -70 -23
-21 -12 -46 -21 -56 -21 -9 0 -18 -5 -20 -10 -2 -6 -16 -13 -32 -16 -16 -2
-43 -16 -61 -29 -17 -14 -34 -23 -37 -20 -3 3 -11 -1 -18 -10 -7 -8 -19 -15
-26 -15 -8 0 -14 -4 -14 -9 0 -5 -39 -35 -87 -67 -87 -58 -123 -89 -123 -106
0 -4 -7 -8 -15 -8 -8 0 -15 -6 -15 -12 0 -7 -14 -24 -31 -38 -17 -13 -41 -38
-53 -55 -78 -116 -103 -157 -124 -210 -14 -33 -29 -63 -33 -66 -5 -3 -12 -27
-15 -54 -3 -28 -9 -52 -12 -55 -9 -6 -12 -29 -14 -102 -1 -61 -2 -62 -58 -59
-14 0 -36 1 -50 1 -14 0 -34 0 -45 0 -87 1 -134 -4 -225 -24 -78 -17 -133 -36
-141 -48 -3 -6 -9 -9 -13 -9 -3 1 -22 -6 -42 -14 -20 -8 -39 -15 -41 -15 -3 0
-17 -8 -31 -19 -39 -27 -133 -77 -161 -86 -14 -4 -33 -16 -44 -26 -11 -10 -23
-16 -27 -14 -5 3 -10 -1 -13 -8 -3 -7 -24 -26 -48 -42 -24 -17 -46 -32 -49
-35 -3 -3 -22 -18 -43 -33 -49 -37 -80 -87 -106 -171 -26 -84 -26 -101 -1
-133 11 -14 17 -30 13 -36 -9 -15 -11 -67 -3 -67 4 0 8 -12 7 -27 0 -17 10
-35 27 -49 22 -19 24 -27 17 -47 -6 -14 -7 -28 -4 -31 4 -3 1 -6 -6 -6 -7 0
-10 -4 -6 -9 3 -5 0 -15 -7 -23 -7 -7 -13 -22 -12 -33 0 -11 -3 -30 -7 -42 -6
-17 -2 -27 18 -43 33 -26 63 -26 70 0 10 39 26 21 19 -22 -4 -24 -8 -52 -10
-64 -1 -11 -6 -26 -10 -32 -24 -40 -25 -525 0 -712 3 -25 8 -61 9 -80 2 -19 7
-51 10 -70 3 -19 7 -48 9 -65 4 -34 13 -85 23 -130 4 -16 6 -36 4 -43 -1 -8 4
-21 12 -30 7 -10 14 -27 15 -39 1 -23 40 -83 54 -83 4 0 17 -9 28 -20 19 -19
19 -21 2 -38 -40 -42 -87 -101 -87 -109 0 -4 -10 -24 -23 -44 -12 -20 -22 -43
-22 -52 0 -9 -9 -31 -20 -49 -18 -31 -32 -128 -33 -228 0 -59 14 -191 24 -217
5 -13 11 -36 14 -51 12 -64 15 -78 24 -97 15 -33 24 -60 23 -67 -1 -4 5 -26
14 -48 9 -22 14 -46 11 -53 -3 -7 3 -19 14 -25 10 -6 23 -29 28 -50 6 -21 29
-58 52 -83 81 -88 113 -119 121 -119 5 0 14 -11 20 -25 6 -14 18 -25 27 -25 9
0 33 -11 53 -25 20 -14 39 -25 42 -25 3 0 28 -14 56 -31 41 -25 60 -31 107
-30 89 0 94 2 116 39 17 29 21 31 29 17 5 -9 7 -22 5 -29 -3 -8 -1 -18 5 -24
6 -6 12 -21 14 -34 1 -13 7 -63 13 -111 6 -48 13 -92 16 -97 3 -5 6 -59 6
-119 0 -62 4 -113 10 -116 5 -4 7 -10 4 -15 -3 -5 0 -21 6 -37 7 -15 13 -57
14 -93 2 -36 12 -91 23 -122 12 -32 19 -58 16 -58 -2 0 3 -16 11 -36 8 -20 15
-45 15 -56 0 -51 61 -145 159 -245 55 -57 102 -112 106 -123 3 -11 12 -20 19
-20 7 0 22 -10 33 -22 30 -34 122 -111 149 -126 13 -7 24 -16 24 -20 0 -4 12
-13 28 -19 15 -7 43 -26 62 -43 19 -16 39 -30 44 -30 5 0 16 -7 25 -15 9 -9
41 -34 71 -58 84 -64 82 -59 82 -146 0 -44 -3 -84 -7 -90 -3 -6 -9 -30 -11
-54 -5 -42 -11 -77 -14 -87 -1 -3 -2 -8 -1 -12 0 -4 -4 -31 -10 -60 -6 -29
-13 -66 -14 -83 -2 -16 -4 -30 -5 -30 -1 0 -4 -13 -6 -29 -3 -16 -12 -47 -20
-70 -8 -23 -17 -52 -20 -66 -3 -14 -13 -57 -24 -96 -10 -39 -16 -81 -13 -94 4
-15 1 -27 -11 -35 -9 -7 -19 -23 -21 -35 -9 -45 -52 -98 -87 -105 -18 -4 -42
-13 -53 -19 -18 -12 -86 -29 -100 -26 -3 1 -26 -10 -51 -25 -24 -14 -48 -23
-54 -20 -5 3 -17 -3 -27 -13 -21 -21 -84 -52 -107 -52 -9 0 -16 -5 -16 -12 0
-6 -3 -8 -6 -5 -4 3 -16 1 -28 -5 -11 -7 -23 -13 -26 -13 -26 -4 -80 -29 -80
-36 0 -6 -5 -7 -10 -4 -6 4 -17 2 -24 -4 -8 -7 -18 -11 -22 -9 -5 1 -27 -6
-49 -16 -39 -17 -156 -57 -183 -62 -7 -1 -24 -10 -38 -19 -14 -9 -42 -18 -62
-19 -20 -1 -57 -8 -82 -15 -25 -7 -51 -15 -58 -17 -7 -2 -14 -2 -16 -1 -2 1
-12 -5 -22 -14 -11 -8 -26 -15 -34 -14 -8 0 -34 -7 -57 -16 -22 -10 -44 -15
-47 -12 -3 4 -6 2 -6 -4 0 -6 -21 -16 -47 -23 -27 -7 -68 -23 -93 -35 -25 -12
-57 -25 -71 -28 -14 -4 -36 -16 -49 -27 -13 -11 -26 -20 -29 -21 -28 -3 -46
-10 -66 -23 -13 -9 -35 -16 -48 -16 -14 0 -42 -7 -63 -16 -21 -9 -45 -17 -53
-19 -43 -10 -284 -117 -341 -151 -77 -47 -91 -58 -181 -144 -38 -36 -74 -70
-81 -76 -23 -20 -49 -55 -60 -80 -6 -13 -15 -24 -19 -24 -5 0 -21 -19 -36 -42
-15 -24 -31 -45 -34 -48 -3 -3 -13 -18 -22 -35 -8 -16 -27 -43 -41 -60 -14
-16 -26 -34 -26 -38 0 -9 -43 -68 -77 -105 -13 -14 -23 -30 -23 -36 0 -9 -27
-47 -78 -111 -4 -5 -18 -30 -31 -54 -12 -25 -39 -64 -59 -87 -21 -23 -44 -54
-52 -70 -8 -16 -19 -34 -25 -41 -21 -26 -31 -39 -48 -65 -9 -15 -17 -30 -17
-33 0 -3 1931 -5 4292 -5 4157 0 4291 1 4275 18 -10 10 -17 22 -17 27 0 8 -74
128 -95 152 -20 24 -31 39 -70 93 -22 30 -45 61 -52 68 -7 7 -13 17 -13 21 0
5 -20 29 -44 55 -25 25 -43 46 -41 46 9 0 -106 125 -121 131 -5 2 -25 24 -44
49 -19 25 -39 48 -45 52 -5 4 -6 8 -2 8 4 0 -2 10 -13 23 -12 12 -22 20 -23
17 -2 -3 -17 10 -35 27 -17 18 -36 33 -41 33 -5 0 -16 6 -23 12 -34 33 -94 73
-106 70 -7 -2 -15 4 -18 13 -3 8 -12 15 -20 15 -7 0 -19 8 -26 18 -13 17 -133
102 -145 102 -4 0 -16 9 -27 19 -23 21 -149 89 -211 113 -22 9 -58 24 -80 34
-22 10 -48 17 -57 15 -10 -1 -18 3 -18 8 0 6 -3 10 -7 9 -11 -3 -79 20 -128
42 -22 10 -56 21 -75 23 -19 3 -84 21 -145 41 -98 33 -159 51 -205 62 -8 2
-33 10 -55 18 -22 8 -53 16 -70 19 -16 3 -55 14 -85 25 -51 18 -169 56 -180
58 -47 7 -80 18 -80 27 0 6 -3 7 -6 4 -4 -3 -16 -1 -28 5 -11 7 -23 13 -26 13
-10 1 -77 29 -137 57 -34 16 -71 30 -82 31 -12 1 -21 4 -21 7 0 3 -15 11 -32
19 -18 7 -57 24 -87 37 -30 14 -56 22 -59 19 -3 -2 -16 5 -30 15 -13 11 -32
20 -41 20 -16 0 -81 36 -91 50 -3 3 -30 19 -60 33 -66 32 -78 55 -84 153 -2
38 -7 85 -10 104 -4 19 -8 83 -10 141 -1 58 -6 110 -9 116 -4 6 -2 24 3 41 5
20 5 34 -1 38 -5 3 -7 10 -3 15 3 6 8 51 9 100 4 93 14 189 21 201 2 4 0 10
-6 13 -7 5 -8 11 -1 19 5 6 8 29 6 50 -3 33 2 44 28 70 33 32 108 86 120 86 4
0 34 18 66 40 32 22 64 40 70 40 6 0 11 4 11 9 0 5 14 14 30 21 17 7 30 16 30
20 0 4 18 15 40 26 22 10 40 22 40 27 0 4 4 7 9 7 5 0 44 24 86 52 42 29 87
60 99 68 61 41 195 153 223 187 72 86 131 161 163 208 19 27 43 58 53 69 16
18 18 25 16 42 0 4 4 10 9 13 13 8 90 151 95 176 2 11 7 28 11 37 4 9 5 22 1
28 -3 5 -3 10 2 10 16 0 45 117 48 190 3 62 11 152 19 204 1 6 4 16 8 21 5 8
12 43 23 110 1 6 3 26 3 46 2 35 18 59 64 92 66 47 100 89 152 192 31 61 55
118 52 128 -2 9 0 17 6 17 6 0 8 10 5 21 -3 12 2 38 13 59 10 20 22 63 25 96
4 32 11 77 17 99 6 22 12 54 14 70 5 41 5 216 -1 224 -2 4 -7 30 -11 57 -3 27
-10 59 -15 72 -5 13 -9 34 -9 47 0 13 -7 30 -15 38 -8 8 -12 17 -9 20 18 17
-96 154 -117 141 -5 -3 -9 -1 -9 5 0 13 -68 45 -92 44 -19 -2 -31 28 -24 62 3
11 5 23 5 26 2 15 50 5 54 -11 5 -21 41 -20 68 3 10 9 23 17 27 17 34 0 123
106 138 164 4 16 14 37 23 47 33 36 42 49 34 49 -4 0 -1 5 7 10 8 5 16 21 17
35 1 15 8 34 15 42 15 18 19 138 7 212 -4 29 -18 73 -30 98 -15 30 -22 68 -24
118 -2 41 -6 79 -10 85 -4 7 -4 15 1 19 20 14 57 147 60 216 3 62 0 80 -21
121 -24 47 -33 104 -17 104 11 0 51 93 50 115 -1 11 2 30 6 42 4 12 3 24 -3
27 -5 3 -6 21 -1 40 4 19 6 37 4 39 -2 2 -6 19 -8 38 -2 19 -12 54 -21 79 -9
25 -19 53 -22 63 -3 9 -9 17 -14 17 -5 0 -9 5 -9 10 0 6 -15 24 -32 41 -93 86
-108 105 -119 138 -14 41 -37 81 -58 97 -8 6 -11 18 -8 27 4 10 -1 18 -13 22
-11 4 -23 18 -26 32 -4 14 -14 34 -22 43 -8 10 -29 33 -46 53 -17 19 -37 42
-44 51 -16 19 -29 59 -35 102 -3 17 -10 40 -16 51 -5 11 -13 33 -15 49 -5 25
-27 76 -55 124 -5 8 -15 29 -22 45 -7 17 -18 36 -23 44 -6 7 -11 19 -12 26 -2
14 -7 21 -106 155 -54 73 -108 127 -178 180 -19 14 -48 36 -64 50 -17 14 -38
30 -47 35 -9 6 -43 28 -75 49 -69 46 -207 117 -238 121 -34 5 -58 12 -106 30
-25 9 -57 17 -71 18 -14 1 -32 7 -40 13 -8 7 -58 12 -119 12 -83 0 -115 5
-153 21 -27 12 -53 19 -58 16 -4 -3 -27 3 -50 14 -23 11 -45 18 -50 16 -4 -3
-10 -1 -13 4 -3 4 -31 9 -62 10 -31 0 -63 6 -70 12 -9 7 -14 8 -14 1 0 -9 -28
-9 -70 0 -9 2 -47 19 -85 37 -39 18 -79 37 -90 41 -11 4 -31 12 -45 18 -14 5
-39 15 -56 21 -28 11 -350 21 -360 12z"/>
</g>
</svg>
