<?xml version="1.0" encoding="utf-8"?>
<!-- Generator: Adobe Illustrator 23.0.1, SVG Export Plug-In . SVG Version: 6.00 Build 0)  -->
<svg version="1.1" id="Layer_1" xmlns="http://www.w3.org/2000/svg" xmlns:xlink="http://www.w3.org/1999/xlink" x="0px" y="0px"
	 viewBox="0 0 87 87" style="enable-background:new 0 0 87 87;" xml:space="preserve">
<style type="text/css">
	.st0{stroke:#000000;stroke-miterlimit:10;}
	.st1{fill:none;stroke:#FFFFFF;stroke-width:1.242;stroke-miterlimit:10;}
	.st2{fill:#FFFFFF;stroke:#000000;stroke-width:2.753;stroke-miterlimit:10;}
	.st3{fill:#BC4831;stroke:#000000;stroke-width:2.753;stroke-miterlimit:10;}
	.st4{fill:none;stroke:#000000;stroke-width:2.753;stroke-miterlimit:10;}
	.st5{fill:#FFFFFF;stroke:#000000;stroke-width:1.4683;stroke-miterlimit:10;}
	.st6{fill:#FFFFFF;stroke:#000000;stroke-width:1.8354;stroke-miterlimit:10;}
	.st7{stroke:#000000;stroke-width:2.753;stroke-miterlimit:10;}
	.st8{fill:none;stroke:#000000;stroke-width:2.2024;stroke-miterlimit:10;}
	.st9{fill:#FFFFFF;stroke:#000000;stroke-width:0.7341;stroke-miterlimit:10;}
	.st10{fill:#FFFFFF;stroke:#000000;stroke-width:1.6518;stroke-miterlimit:10;}
	.st11{fill:#BC4831;stroke:#000000;stroke-width:1.6518;stroke-miterlimit:10;}
</style>
<rect x="0.5" y="0.5" class="st0" width="86" height="86"/>
<g>
	<g>
		<g>
			<path class="st1" d="M35.47,60.64c0,0,0-9.18-7.2-9.18s-7.21,9.17-7.21,9.17"/>
			<path class="st2" d="M36.02,62.66l0,10.28c0,0,0,3.12-7.89,3.12s-7.89-3.12-7.89-3.12l0-10.28
				C20.24,62.66,28.68,67.43,36.02,62.66z"/>
			<path class="st3" d="M36.02,62.66c-7.89,4.95-15.78-0.01-15.78-0.01s-1.65-5.14,7.89-5.14S36.02,62.66,36.02,62.66z"/>
		</g>
		<g>
			<path class="st2" d="M41.81,35.68l19.27,7.35c0,0,6.79,4.04,6.79,12.85c0,0-5.69,2.02-9.18,1.1l-0.37-1.47l-12.66-0.19
				c0-6.24-6.79-7.89-6.79-7.89L41.81,35.68z"/>
			<g>
				<ellipse class="st2" cx="56.13" cy="26.24" rx="14.68" ry="16.06"/>
				<path class="st4" d="M68.06,28.72c0,0-0.54-2.18-1.1-3.67"/>
				<path class="st4" d="M41.65,23.55c0,0,2.89,1.49,4.16-0.16c0,0,2.72,3.27,9.59,0.74"/>
				<path class="st4" d="M54.11,23.76c0,0,8.14,7.34,13.57,4.96c1.34-0.59,2.19,2.5,2.19,2.5"/>
				<path class="st4" d="M49.71,18.43c1.38-0.02,9.08-1.62,14.5,4.04"/>
			</g>
			<path class="st5" d="M45.5,71.91l7.86,0.31c0.55,4.04-4.04,3.49-4.04,3.49c-5.69,0.37-3.67-4.22-3.67-4.22"/>
			<path class="st5" d="M65.11,72.77c-0.37,4.59-6.43,4.04-6.43,4.04c-6.79,0-5.32-4.59-5.32-4.59L65.11,72.77z"/>
			<path class="st2" d="M59.08,55.51c9.26,1.84,6.04,16.15,6.04,16.15c-6.99,1.47-12.1-0.55-12.1-0.55
				c-6.24,1.47-7.37-0.92-7.37-0.92l0.01-14.68L59.08,55.51z"/>
			<path class="st6" d="M67.88,55.51c0.64,4.96-3.55,4.77-3.55,4.77c-5.16,0.37-4.51-3.67-4.51-3.67L67.88,55.51z"/>
			<path class="st2" d="M38.87,47.43"/>
			<polygon class="st2" points="48.78,41.38 48.78,43.58 52.64,42.66 			"/>
			<polygon class="st7" points="52.82,42.85 54.47,45.97 58.88,43.4 			"/>
			<path class="st2" d="M38.14,47.25c0,0-8.47-2.54-6.37-8.02c0,0,1.49-5.36,9.32-3.85"/>
			<line class="st8" x1="53.18" y1="70.93" x2="53.18" y2="61.2"/>
		</g>
		<g>
			<path class="st9" d="M29.19,29.32c6.16-1.01,4.42-5.93,4.42-5.93L19.3,25.74c0,0-0.62,5.31,6.27,4.18l1.7,10.32
				c0,0,2.23,1.12,3.98-0.65L29.19,29.32z"/>
			<path class="st4" d="M19.12,26.32"/>
			<path class="st10" d="M33.61,23.94c-1.36-11.68-3.66-10.93-3.66-10.93l-11.81,1.94c-4.81-0.14,0.76,11.41,0.76,11.41L33.61,23.94
				z"/>
			<path class="st11" d="M19.3,26.29c-4.42-5.41-2.52-10.88-2.52-10.88s12.26-2.25,13.17-2.4c0.91-0.15,1.95,2.47,1.95,2.47
				l-1.87,0.31c-2.35,0.39-0.43,5.28-0.43,5.28c-0.43,1.93-3.1,1-3.1,1l-0.93-4.18c-0.81-3.77-5.03,6.89-5.03,6.89L19.3,26.29z"/>
		</g>
	</g>
</g>
</svg>
