<?xml version="1.0" encoding="utf-8"?>
<!-- Generator: Adobe Illustrator 25.4.1, SVG Export Plug-In . SVG Version: 6.00 Build 0)  -->
<svg version="1.1" id="Layer_1" xmlns="http://www.w3.org/2000/svg" xmlns:xlink="http://www.w3.org/1999/xlink" x="0px" y="0px"
	 viewBox="0 0 200 200" style="enable-background:new 0 0 200 200;" xml:space="preserve">
<style type="text/css">
	.st0{fill:#3B3B3B;}
</style>
<path class="st0" d="M100.5,2.9C46.1,2.9,2,47,2,101.4C2,145,30.2,181.9,69.4,195c4.9,0.9,6.7-2.2,6.7-4.7c0-2.3-0.1-10.1-0.2-18.3
	c-24.7,4.5-31.2-6.1-33.2-11.7c-1.1-2.8-5.8-11.6-10.1-13.9c-3.5-1.9-8.3-6.4-0.2-6.5c7.7-0.1,13.3,7.2,15.1,10.2
	c8.8,15,23.1,10.7,28.7,8.2c0.9-6.3,3.4-10.7,6.2-13.2c-21.9-2.5-44.9-10.9-44.9-48.7c0-10.7,3.8-19.6,10.2-26.5
	c-1-2.5-4.4-12.5,1-26.1c0,0,8.2-2.7,27.1,10.1c7.8-2.2,16.3-3.2,24.7-3.3c8.4,0,16.8,1.2,24.7,3.3c18.8-12.7,27.1-10.1,27.1-10.1
	c5.4,13.6,2,23.6,1,26.1c6.3,6.9,10.2,15.7,10.2,26.5c0,37.9-23.1,46.2-45,48.6c3.6,3.1,6.7,9.1,6.7,18.2c0,13.2-0.2,23.8-0.2,27.1
	c0,2.6,1.8,5.7,6.7,4.7c39.2-13.1,67.4-50,67.4-93.5C199.2,47,155,2.9,100.5,2.9z"/>
</svg>
