<?xml version="1.0" encoding="utf-8"?>
<!-- Generator: Adobe Illustrator 25.4.1, SVG Export Plug-In . SVG Version: 6.00 Build 0)  -->
<svg version="1.1" id="Layer_1" xmlns="http://www.w3.org/2000/svg" xmlns:xlink="http://www.w3.org/1999/xlink" x="0px" y="0px"
	 viewBox="0 0 200 200" style="enable-background:new 0 0 200 200;" xml:space="preserve">
<style type="text/css">
	.st0{fill:#3B3B3B;}
	.st1{fill:none;}
</style>
<g>
	<path class="st0" d="M199.4,100.4c0,28.2,0,56.4,0,84.6c0,3.7-1,7.1-3.5,9.9c-2.9,3.3-6.6,5.1-10.9,5.1c-56.8,0-113.6,0.1-170.4,0
		c-7.8,0-13.5-6.1-14.2-12.6c-0.1-0.8-0.2-1.6-0.2-2.4c0-56.4,0-112.8,0-169.2C0.2,8.7,4.3,3.2,11,1.5C12.2,1.2,13.5,1,14.8,1
		c56.6,0,113.3,0,169.9,0c7,0,12.8,4.6,14.3,11.4c0.3,1.2,0.3,2.4,0.3,3.6C199.5,44.1,199.4,72.3,199.4,100.4z M170.2,170.6
		c0-0.5,0-0.9,0-1.3c0-6.1,0-12.3,0-18.4c-0.1-13.4-0.1-26.8-0.2-40.2c0-3.1-0.5-6.3-1-9.4c-0.8-5-2.2-9.9-4.8-14.3
		c-3.3-5.5-7.9-9.4-14-11.5c-5.4-1.9-11-2.5-16.7-2.4c-3,0.1-6,0.5-8.9,1.4c-7.3,2.1-13.2,6.3-17.4,12.8c-0.2,0.4-0.5,0.8-0.7,1.2
		c-0.1,0-0.2-0.1-0.2-0.1c0-0.3,0-0.7,0-1c0-3.6,0-7.1,0-10.7c0-1.3,0-1.3-1.3-1.3c-8.6,0-17.3,0-25.9,0c-1.2,0-1.3,0-1.3,1.3
		c0,30.9,0,61.8,0,92.8c0,1,0.3,1.2,1.3,1.2c9,0,18,0,27,0c1.4,0,1.4,0,1.4-1.4c0.1-16.7,0.1-33.4,0.2-50.1c0-3.3,0.6-6.6,1.8-9.7
		c1.7-4.7,4.7-8,9.6-9.3c2.8-0.8,5.7-1,8.6-0.7c5,0.6,8.6,3,10.7,7.7c1.6,3.6,2.1,7.4,2.1,11.2c0.1,17,0,34.1,0.1,51.1
		c0,1.3,0,1.3,1.3,1.3c9.1,0,18.2,0,27.3,0C169.4,170.6,169.7,170.6,170.2,170.6z M29.7,170.6c0.5,0,0.8,0,1.2,0
		c9.1,0,18.2,0,27.3,0c1,0,1.2-0.4,1.2-1.3c0-30.9,0-61.7,0-92.6c0-1.4,0-1.4-1.4-1.4c-8.9,0-17.9,0-26.8,0c-1.4,0-1.4,0-1.4,1.4
		c0,30.8,0,61.6,0,92.5C29.7,169.6,29.7,170,29.7,170.6z M27.4,45.3c-0.1,9.5,7.5,17.4,17.2,17.3c9.8-0.1,17.3-7.5,17.3-17.3
		C62,35.7,54.1,28.1,44.6,28C35.2,28.1,27.2,36,27.4,45.3z"/>
	<path class="st1" d="M170.2,170.6c-0.5,0-0.9,0-1.2,0c-9.1,0-18.2,0-27.3,0c-1.3,0-1.3,0-1.3-1.3c0-17,0-34.1-0.1-51.1
		c0-3.8-0.6-7.6-2.1-11.2c-2-4.6-5.7-7.1-10.7-7.7c-2.9-0.3-5.8-0.1-8.6,0.7c-4.9,1.4-7.9,4.7-9.6,9.3c-1.1,3.1-1.7,6.4-1.8,9.7
		c-0.1,16.7-0.1,33.4-0.2,50.1c0,1.4,0,1.4-1.4,1.4c-9,0-18,0-27,0c-1,0-1.3-0.2-1.3-1.2c0-30.9,0-61.8,0-92.8c0-1.2,0-1.3,1.3-1.3
		c8.6,0,17.3,0,25.9,0c1.3,0,1.3,0,1.3,1.3c0,3.6,0,7.1,0,10.7c0,0.3,0,0.7,0,1c0.1,0,0.2,0.1,0.2,0.1c0.2-0.4,0.5-0.8,0.7-1.2
		c4.2-6.5,10-10.6,17.4-12.8c2.9-0.9,5.9-1.3,8.9-1.4c5.7-0.2,11.3,0.4,16.7,2.4c6.1,2.2,10.7,6,14,11.5c2.6,4.4,4,9.3,4.8,14.3
		c0.5,3.1,0.9,6.2,1,9.4c0.2,13.4,0.2,26.8,0.2,40.2c0,6.1,0,12.3,0,18.4C170.2,169.7,170.2,170.1,170.2,170.6z"/>
	<path class="st1" d="M29.7,170.6c0-0.6,0-1,0-1.4c0-30.8,0-61.6,0-92.5c0-1.4,0-1.4,1.4-1.4c8.9,0,17.9,0,26.8,0
		c1.4,0,1.4,0,1.4,1.4c0,30.9,0,61.7,0,92.6c0,0.9-0.2,1.3-1.2,1.3c-9.1,0-18.2,0-27.3,0C30.6,170.6,30.2,170.6,29.7,170.6z"/>
	<path class="st1" d="M27.4,45.3c-0.1-9.4,7.8-17.3,17.2-17.2c9.5,0.1,17.4,7.7,17.3,17.3c-0.1,9.7-7.5,17.2-17.3,17.3
		C34.9,62.7,27.3,54.9,27.4,45.3z"/>
</g>
</svg>
